<?xml version="1.0" encoding="iso-8859-1"?>
<!-- Uploaded to: SVG Repo, www.svgrepo.com, Generator: SVG Repo Mixer Tools -->
<!DOCTYPE svg PUBLIC "-//W3C//DTD SVG 1.1//EN" "http://www.w3.org/Graphics/SVG/1.1/DTD/svg11.dtd">
<svg fill="#000000" version="1.1" id="Capa_1" xmlns="http://www.w3.org/2000/svg" xmlns:xlink="http://www.w3.org/1999/xlink" 
	 width="800px" height="800px" viewBox="0 0 87.5 87.5" xml:space="preserve">
<g>
	<path d="M67.5,19.25H20c-11.046,0-20,8.954-20,20v9c0,11.046,8.954,20,20,20h47.5c11.046,0,20-8.954,20-20v-9
		C87.5,28.204,78.546,19.25,67.5,19.25z M38.433,48.1H28.6v9.832h-8.7V48.1h-9.833v-8.699H19.9v-9.833h8.699v9.833h9.833
		L38.433,48.1L38.433,48.1z M56.75,43.75c-4.418,0-8-3.582-8-8s3.582-8,8-8s8,3.582,8,8S61.168,43.75,56.75,43.75z M71.5,58
		c-4.418,0-8-3.582-8-8s3.582-8,8-8s8,3.582,8,8S75.918,58,71.5,58z"/>
</g>
</svg>